<?xml version="1.0" standalone="no"?>
<!DOCTYPE svg PUBLIC "-//W3C//DTD SVG 20010904//EN"
 "http://www.w3.org/TR/2001/REC-SVG-20010904/DTD/svg10.dtd">
<svg version="1.0" xmlns="http://www.w3.org/2000/svg"
 width="347.000000pt" height="320.000000pt" viewBox="0 0 347.000000 320.000000"
 preserveAspectRatio="xMidYMid meet">
<metadata>
Created by potrace 1.16, written by Peter Selinger 2001-2019
</metadata>
<g transform="translate(0.000000,320.000000) scale(0.100000,-0.100000)"
fill="#000000" stroke="none">
<path d="M193 2873 c3 -65 10 -132 16 -149 7 -19 80 -96 184 -195 95 -90 174
-173 176 -184 2 -14 -14 -3 -57 38 -33 31 -66 57 -72 57 -9 0 -11 -31 -9 -114
5 -141 4 -139 195 -312 76 -69 141 -135 142 -147 3 -18 0 -17 -35 10 -21 17
-47 40 -57 52 -11 12 -24 21 -29 21 -15 0 0 -155 18 -195 19 -38 135 -152 445
-439 118 -109 219 -205 223 -213 5 -8 12 -57 16 -110 l7 -96 124 -118 c100
-95 127 -116 136 -104 5 7 37 73 69 145 l59 131 -45 41 c-24 22 -107 97 -184
167 -77 69 -165 148 -195 177 -30 28 -91 84 -135 123 -95 86 -109 108 -94 148
6 15 17 35 25 44 12 14 5 24 -63 90 -42 41 -82 88 -89 106 -9 19 -14 70 -14
126 0 84 -2 96 -25 127 -33 45 -62 138 -71 231 l-7 74 -71 65 c-39 37 -145
133 -236 214 -91 82 -204 184 -252 227 -47 44 -90 79 -94 79 -4 0 -4 -53 -1
-117z"/>
<path d="M3211 2890 c-63 -58 -156 -141 -205 -186 -50 -44 -145 -131 -211
-193 l-120 -112 -2 -57 c-4 -92 -32 -188 -72 -245 -35 -50 -36 -54 -33 -131 1
-43 -2 -93 -8 -111 -6 -17 -44 -64 -85 -104 -41 -41 -75 -77 -75 -80 0 -3 9
-19 20 -36 34 -51 27 -77 -37 -138 -63 -60 -506 -462 -566 -514 l-37 -32 58
-123 c32 -68 62 -133 68 -146 9 -22 15 -19 129 89 66 62 124 120 130 128 5 9
12 58 15 109 l6 94 59 57 c33 31 150 139 260 241 370 341 379 353 373 487 l-3
66 -57 -52 c-43 -39 -58 -48 -58 -35 0 18 9 27 192 197 59 54 114 114 123 133
10 21 18 74 22 139 7 127 2 130 -77 50 -30 -30 -58 -55 -62 -55 -11 0 -10 38
1 42 5 2 65 55 133 119 67 64 140 130 160 148 65 57 79 101 76 237 l-3 119
-114 -105z"/>
<path d="M880 2409 c0 -64 23 -198 41 -240 15 -34 55 -80 142 -166 144 -139
157 -156 157 -205 0 -50 -14 -84 -61 -144 -21 -28 -39 -60 -39 -71 0 -13 32
-49 87 -99 49 -44 120 -108 158 -144 329 -303 385 -351 385 -328 0 13 -18 110
-39 216 l-38 193 -44 45 c-40 41 -47 44 -96 44 -51 0 -55 2 -103 53 -27 28
-50 61 -50 73 0 22 47 101 73 123 12 10 17 29 17 70 l0 57 -182 170 c-101 93
-223 207 -273 254 -49 47 -100 94 -112 104 -23 19 -23 19 -23 -5z"/>
<path d="M2580 2374 c-36 -31 -132 -121 -215 -199 -82 -77 -179 -167 -215
-199 -96 -86 -100 -92 -100 -146 0 -35 5 -52 21 -66 23 -21 63 -87 74 -121 5
-18 -4 -34 -46 -78 -51 -54 -53 -55 -107 -55 -51 0 -57 -3 -97 -42 l-42 -43
-41 -215 c-23 -118 -40 -216 -37 -218 2 -2 61 49 132 115 70 65 210 192 310
282 101 90 185 173 189 184 4 13 -4 33 -25 61 -17 22 -43 65 -57 95 -41 83
-31 103 130 263 116 116 136 141 155 192 21 57 47 214 39 237 -2 6 -33 -15
-68 -47z"/>
<path d="M1807 2025 c-3 -22 -9 -79 -12 -127 -7 -88 -16 -105 -50 -92 -11 5
-15 24 -16 83 -1 89 -13 173 -22 151 -3 -8 -11 -73 -17 -145 -9 -117 -9 -135
8 -180 11 -32 27 -55 44 -65 25 -13 29 -13 53 10 38 36 48 88 40 214 -4 61
-10 129 -14 151 l-7 40 -7 -40z"/>
<path d="M980 1947 c0 -65 3 -79 28 -113 28 -38 140 -140 146 -133 2 2 11 18
20 36 34 67 18 101 -97 206 -47 42 -88 77 -91 77 -3 0 -6 -33 -6 -73z"/>
<path d="M2438 1932 c-103 -103 -114 -126 -92 -182 9 -22 21 -40 27 -40 13 0
137 117 154 145 13 22 18 165 6 165 -5 0 -47 -39 -95 -88z"/>
<path d="M1638 1654 c-37 -19 -35 -34 2 -34 50 0 37 -27 -16 -33 -28 -3 -54
-13 -67 -26 l-21 -21 70 0 c66 0 73 -2 111 -35 23 -19 44 -35 47 -35 3 0 23
16 44 35 36 31 44 34 113 37 l74 3 -27 18 c-15 11 -45 21 -68 24 -48 7 -56 33
-10 33 36 0 37 6 8 31 -33 26 -43 24 -93 -22 l-44 -40 -42 40 c-47 46 -44 45
-81 25z"/>
<path d="M320 1491 c-9 -17 0 -28 74 -85 l84 -66 237 0 238 0 -6 47 c-4 37
-13 54 -43 84 l-39 38 -267 1 c-255 0 -268 -1 -278 -19z"/>
<path d="M2622 1470 c-37 -36 -42 -46 -42 -85 l0 -45 244 0 245 0 74 59 c87
69 93 77 77 96 -10 13 -58 15 -284 15 l-272 0 -42 -40z"/>
<path d="M1705 1418 c15 -71 45 -233 45 -248 0 -11 4 -21 8 -24 7 -4 62 247
62 283 0 7 -23 11 -60 11 -57 0 -60 -1 -55 -22z"/>
<path d="M980 1335 c0 -77 20 -114 98 -182 37 -32 103 -93 147 -135 44 -43 83
-78 87 -78 11 0 10 66 -1 113 -8 32 -34 62 -146 170 -76 72 -148 139 -161 150
l-24 18 0 -56z"/>
<path d="M2383 1241 c-90 -83 -165 -162 -169 -175 -3 -12 -4 -46 -2 -76 l3
-53 157 148 c170 158 183 178 176 264 l-3 45 -162 -153z"/>
<path d="M572 1271 c5 -13 212 -177 246 -195 24 -12 62 -16 167 -16 74 0 135
4 135 9 0 4 -31 35 -68 69 -40 35 -76 77 -87 101 l-18 41 -189 0 c-105 0 -188
-4 -186 -9z"/>
<path d="M2561 1243 c-11 -21 -49 -67 -85 -103 -36 -35 -66 -68 -66 -72 0 -4
69 -8 153 -8 l152 0 133 105 c72 58 132 107 132 110 0 3 -90 5 -200 5 l-200 0
-19 -37z"/>
<path d="M923 997 c8 -24 336 -274 368 -281 40 -8 146 -6 178 3 22 6 14 16
-108 131 -73 68 -144 133 -159 142 -23 15 -47 18 -155 17 -91 -1 -127 -4 -124
-12z"/>
<path d="M2293 968 c-26 -22 -97 -88 -158 -145 l-110 -103 129 0 128 0 174
136 c96 75 174 140 174 145 0 5 -64 9 -144 9 l-145 0 -48 -42z"/>
<path d="M1688 750 c-38 -82 -68 -154 -68 -159 0 -11 68 -66 74 -60 2 2 9 40
15 84 31 207 71 214 104 16 9 -51 19 -96 21 -99 6 -5 74 49 75 61 1 7 -147
307 -152 307 -1 0 -32 -68 -69 -150z"/>
<path d="M1752 714 c-12 -22 -62 -318 -62 -364 0 -38 59 -106 83 -97 31 12 57
69 57 125 0 57 -45 314 -59 340 -7 13 -10 13 -19 -4z"/>
</g>
</svg>
